<?xml version="1.0" encoding="iso-8859-1"?>
<!-- Generator: Adobe Illustrator 16.0.0, SVG Export Plug-In . SVG Version: 6.00 Build 0)  -->
<!DOCTYPE svg PUBLIC "-//W3C//DTD SVG 1.1//EN" "http://www.w3.org/Graphics/SVG/1.1/DTD/svg11.dtd">
<svg version="1.1" id="Capa_1" xmlns="http://www.w3.org/2000/svg" xmlns:xlink="http://www.w3.org/1999/xlink" x="0px" y="0px"
	 width="20px" height="20px" viewBox="0 0 113.405 113.405" style="enable-background:new 0 0 113.405 113.405;"
	 xml:space="preserve">
<g>
	<path d="M111.733,10.138c-1.013-0.412-2.156-0.185-2.942,0.578L84.08,35.302L58.617,9.819c-1.053-1.047-2.771-1.047-3.818,0
		l-25.516,25.51L4.617,10.715c-0.778-0.772-1.933-0.994-2.943-0.578C0.659,10.554,0,11.543,0,12.632v79.531
		c0,1.487,1.21,2.7,2.7,2.7h27.432c0.182,0.047,0.372,0.068,0.572,0.068c0.01,0,0.01,0,0.01,0l79.99-0.074
		c1.482,0,2.7-1.213,2.7-2.7V12.632C113.405,11.543,112.751,10.56,111.733,10.138z M27.388,41.064c1.055,1.041,2.766,1.047,3.818,0
		l25.5-25.511l25.466,25.479c1.055,1.047,2.763,1.042,3.817,0L108,19.129v56.892H5.4V19.139L27.388,41.064z M31.364,89.521
		c-0.19-0.053-0.379-0.073-0.572-0.073H5.411v-8.026h102.6v8.026L31.364,89.521z M10.805,63.76V38.662
		c0-1.092,0.659-2.08,1.669-2.502c1.015-0.403,2.17-0.177,2.942,0.577L29.305,50.59l15.411-15.412c1.055-1.055,2.771-1.055,3.818,0
		c1.055,1.053,1.055,2.764,0,3.818L31.216,56.315c-1.046,1.055-2.763,1.049-3.81,0.01L16.205,45.151v18.594
		c0,1.492-1.215,2.7-2.7,2.7C12.021,66.445,10.805,65.248,10.805,63.76z M113.405,101.671c0,1.487-1.218,2.7-2.7,2.7h-108
		c-1.484,0-2.7-1.213-2.7-2.7c0-1.492,1.215-2.7,2.7-2.7h108C112.188,98.971,113.405,100.179,113.405,101.671z"/>
</g>
</svg>
